<svg xmlns="http://www.w3.org/2000/svg" xmlns:xlink="http://www.w3.org/1999/xlink" version="1.1" x="0px" y="0px" width="24px" height="24px" viewBox="0 0 1024 1280" style="enable-background:new 0 0 1024 1024;" xml:space="preserve"><g><g><g><path d="M907.8,512c0,19.3-1.3,38.5-3.9,57.7c0.4-2.7,0.7-5.3,1.1-8c-5.1,37.1-15,73.3-29.4,107.7     c1-2.4,2-4.8,3-7.2c-9.1,21.4-19.9,42.1-32.3,61.8c-5.6,8.9-11.6,17.7-17.9,26.2c-1.5,2-3,3.9-4.4,5.8c6.3-8.5,0.3-0.5-1.2,1.4     c-3.2,4-6.5,7.9-9.8,11.8c-13.4,15.5-27.9,30-43.3,43.4c-3.9,3.4-7.8,6.6-11.8,9.8c-1.9,1.5-3.8,3-5.7,4.5c-3,2.4,6.4-4.9,2-1.6     c-1.4,1-2.7,2.1-4.1,3.1c-8.2,6.1-16.7,11.9-25.4,17.4c-19.7,12.5-40.5,23.3-61.9,32.5c2.4-1,4.8-2,7.2-3     c-34.7,14.6-71.2,24.6-108.5,29.7c2.7-0.4,5.3-0.7,8-1.1c-38,5-76.6,5-114.6,0c2.7,0.4,5.3,0.7,8,1.1     c-37.3-5.1-73.8-15.1-108.5-29.7c2.4,1,4.8,2,7.2,3c-19-8.1-37.4-17.5-55.1-28.2c-8.8-5.3-17.3-11-25.7-16.9     c-2-1.4-4-2.8-5.9-4.3c-1.2-0.9-2.4-1.7-3.5-2.6c-0.8-0.6-4.8-3.7-0.5-0.3c4.6,3.6-2.2-1.7-3.3-2.6c-2.1-1.7-4.2-3.4-6.2-5.1     c-15.7-13.1-30.5-27.3-44.2-42.5c-3.4-3.8-6.8-7.7-10.1-11.6c-1.6-1.9-3.1-3.7-4.6-5.6c-0.8-0.9-1.5-1.9-2.3-2.9     c-0.7-0.9-4.8-6.2-1.3-1.6c3.6,4.6-1.7-2.2-2.5-3.4c-1.5-2-2.9-3.9-4.3-5.9c-3.1-4.4-6.2-8.8-9.2-13.3     c-14.5-21.9-26.9-45.2-37.2-69.4c1,2.4,2,4.8,3,7.2c-14.5-34.5-24.4-70.7-29.4-107.7c0.4,2.7,0.7,5.3,1.1,8     c-5.1-38.3-5.1-77,0-115.3c-0.4,2.7-0.7,5.3-1.1,8c5.1-37.1,15-73.3,29.4-107.7c-1,2.4-2,4.8-3,7.2c9.1-21.4,19.9-42.1,32.3-61.8     c5.6-8.9,11.6-17.7,17.9-26.2c1.5-2,3-3.9,4.4-5.8c-6.3,8.5-0.3,0.5,1.2-1.4c3.2-4,6.5-7.9,9.8-11.8c13.4-15.5,27.9-30,43.3-43.4     c3.9-3.4,7.8-6.6,11.8-9.8c1.9-1.5,3.8-3,5.7-4.5c3-2.4-6.4,4.9-2,1.6c1.4-1,2.7-2.1,4.1-3.1c8.2-6.1,16.7-11.9,25.4-17.4     c19.7-12.5,40.5-23.3,61.9-32.5c-2.4,1-4.8,2-7.2,3c34.7-14.6,71.2-24.6,108.5-29.7c-2.7,0.4-5.3,0.7-8,1.1c38-5,76.6-5,114.6,0     c-2.7-0.4-5.3-0.7-8-1.1c37.3,5.1,73.8,15.1,108.5,29.7c-2.4-1-4.8-2-7.2-3c19,8.1,37.4,17.5,55.1,28.2     c8.8,5.3,17.3,11,25.7,16.9c2,1.4,4,2.8,5.9,4.3c1.2,0.9,2.4,1.7,3.5,2.6c0.8,0.6,4.8,3.7,0.5,0.3c-4.6-3.6,2.2,1.7,3.3,2.6     c2.1,1.7,4.2,3.4,6.2,5.1c15.7,13.1,30.5,27.3,44.2,42.5c3.4,3.8,6.8,7.7,10.1,11.6c1.6,1.9,3.1,3.7,4.6,5.6     c0.8,0.9,1.5,1.9,2.3,2.9c0.7,0.9,4.8,6.2,1.3,1.6c-3.6-4.6,1.7,2.2,2.5,3.4c1.5,2,2.9,3.9,4.3,5.9c3.1,4.4,6.2,8.8,9.2,13.3     c14.5,21.9,26.9,45.2,37.2,69.4c-1-2.4-2-4.8-3-7.2c14.5,34.5,24.4,70.7,29.4,107.7c-0.4-2.7-0.7-5.3-1.1-8     C906.5,473.5,907.8,492.7,907.8,512c0,15.7,13.8,30.7,30,30c16.2-0.7,30-13.2,30-30c-0.2-98.9-32.5-197-92.9-275.5     c-55-71.5-128.8-125.5-214-155.4C575.1,51,479.4,48.3,391.7,72.2c-84.4,23-162.3,71.2-220.2,136.8     C105.7,283.5,66,376.9,57.7,475.9c-8.4,100,18,203,73.5,286.6c48.2,72.6,116.9,131.9,197.1,166.5c43.6,18.8,88.4,30.8,135.6,36.1     c45.8,5.2,92.3,2.6,137.6-6.2c86.3-16.7,167.3-60.2,230-121.8C898.9,771,945.8,683,961.1,589.6c4.2-25.7,6.7-51.6,6.7-77.6     c0-15.7-13.8-30.7-30-30C921.5,482.7,907.9,495.2,907.8,512z"/></g></g><g><g><path d="M708,512c0,35.3-2.3,70.6-7,105.6c0.4-2.7,0.7-5.3,1.1-8c-7.4,54.4-20.6,108.2-41.9,158.9     c1-2.4,2-4.8,3-7.2c-11.4,26.9-25,52.9-41.9,76.7c-1.8,2.6-3.7,5.1-5.6,7.7c-3.6,4.9,4.9-6.1,1.1-1.4c-1.1,1.4-2.2,2.7-3.3,4.1     c-4.1,5-8.3,9.8-12.7,14.4c-4.2,4.5-8.6,8.8-13.2,12.9c-2.1,1.9-4.2,3.7-6.4,5.5c-1.1,0.9-2.2,1.7-3.2,2.6     c-3.2,2.6,4-3.1,3.6-2.8c-0.8,0.6-1.6,1.2-2.5,1.8c-10,7.4-20.8,13.7-32.3,18.6c2.4-1,4.8-2,7.2-3c-10.7,4.5-21.8,7.7-33.2,9.3     c2.7-0.4,5.3-0.7,8-1.1c-11.1,1.5-22.3,1.5-33.4,0c2.7,0.4,5.3,0.7,8,1.1c-11.5-1.6-22.6-4.8-33.2-9.3c2.4,1,4.8,2,7.2,3     c-10.2-4.4-19.9-9.9-29-16.3c-2.5-1.7-10.7-8.3-1.3-0.8c-2.3-1.8-4.6-3.7-6.9-5.6c-4.6-4-9.1-8.1-13.4-12.4     c-4.3-4.4-8.5-8.9-12.5-13.6c-2.1-2.5-4.2-5-6.2-7.6c-0.5-0.6-1-1.2-1.4-1.8c-2.1-2.6,4.6,6,2.5,3.3c-1.1-1.4-2.1-2.8-3.2-4.3     c-8.3-11.3-15.9-23.2-22.8-35.4c-8.3-14.8-15.7-30.1-22.3-45.7c1,2.4,2,4.8,3,7.2C342.6,717.8,329.4,664,322,609.6     c0.4,2.7,0.7,5.3,1.1,8c-9.4-70-9.4-141.3,0-211.2c-0.4,2.7-0.7,5.3-1.1,8c7.4-54.4,20.6-108.2,41.9-158.9c-1,2.4-2,4.8-3,7.2     c11.4-26.9,25-52.9,41.9-76.7c1.8-2.6,3.7-5.1,5.6-7.7c3.6-4.9-4.9,6.1-1.1,1.4c1.1-1.4,2.2-2.7,3.3-4.1c4.1-5,8.3-9.8,12.7-14.4     c4.2-4.5,8.6-8.8,13.2-12.9c2.1-1.9,4.2-3.7,6.4-5.5c1.1-0.9,2.2-1.7,3.2-2.6c3.2-2.6-4,3.1-3.6,2.8c0.8-0.6,1.6-1.2,2.5-1.8     c10-7.4,20.8-13.7,32.3-18.6c-2.4,1-4.8,2-7.2,3c10.7-4.5,21.8-7.7,33.2-9.3c-2.7,0.4-5.3,0.7-8,1.1c11.1-1.5,22.3-1.5,33.4,0     c-2.7-0.4-5.3-0.7-8-1.1c11.5,1.6,22.6,4.8,33.2,9.3c-2.4-1-4.8-2-7.2-3c10.2,4.4,19.9,9.9,29,16.3c2.5,1.7,10.7,8.3,1.3,0.8     c2.3,1.8,4.6,3.7,6.9,5.6c4.6,4,9.1,8.1,13.4,12.4c4.3,4.4,8.5,8.9,12.5,13.6c2.1,2.5,4.2,5,6.2,7.6c0.5,0.6,1,1.2,1.4,1.8     c2.1,2.6-4.6-6-2.5-3.3c1.1,1.4,2.1,2.8,3.2,4.3c8.3,11.3,15.9,23.2,22.8,35.4c8.3,14.8,15.7,30.1,22.3,45.7c-1-2.4-2-4.8-3-7.2     c21.3,50.7,34.4,104.5,41.9,158.9c-0.4-2.7-0.7-5.3-1.1-8C705.7,441.4,707.9,476.7,708,512c0,15.7,13.8,30.7,30,30     c16.2-0.7,30-13.2,30-30c-0.1-86.7-12.5-175.5-43.6-256.8C699.4,190.2,663,126,604.4,85.8c-24.8-17-53.6-27.2-83.6-29.3     c-29.5-2.1-59.2,5.8-85.2,19.6c-26.4,14-49.5,34.9-68.3,58c-22.5,27.7-40.7,58.1-55.1,90.7c-35.3,80-52,166.9-55.6,254.1     c-3.6,88.1,6.1,178.6,33.3,262.7c11.9,36.6,27.1,72.8,47,105.8c16.7,27.6,36.9,54.2,61.7,75c23,19.4,49.7,35.4,79.4,41.7     c28.7,6.2,59.3,4.8,86.9-5.7c62.1-23.7,106.1-78.1,135.6-135.9c38.6-75.5,57.5-159.8,64.5-243.9c1.8-22.1,2.7-44.3,2.7-66.5     c0-15.7-13.8-30.7-30-30C721.7,482.7,708,495.2,708,512z"/></g></g><g><g><path d="M907.8,512c0,19.3-1.3,38.5-3.9,57.7c0.4-2.7,0.7-5.3,1.1-8c-5.1,37.1-15,73.3-29.4,107.7     c1-2.4,2-4.8,3-7.2c-10.2,24-22.5,47-36.8,68.8c8.6-5,17.3-9.9,25.9-14.9c-6.4,0-12.7,0-19.1,0c-17.2,0-34.4,0-51.7,0     c-25.6,0-51.2,0-76.7,0c-31.1,0-62.1,0-93.2,0c-34,0-68,0-102.1,0c-34.5,0-69,0-103.5,0c-32.2,0-64.3,0-96.5,0     c-27.1,0-54.1,0-81.2,0c-19.5,0-39,0-58.4,0c-9.3,0-18.6-0.2-27.9,0c-0.4,0-0.8,0-1.2,0c8.6,5,17.3,9.9,25.9,14.9     c-14.3-21.8-26.6-44.8-36.8-68.8c1,2.4,2,4.8,3,7.2c-14.5-34.5-24.4-70.7-29.4-107.7c0.4,2.7,0.7,5.3,1.1,8     c-5.1-38.3-5.1-77,0-115.3c-0.4,2.7-0.7,5.3-1.1,8c5.1-37.1,15-73.3,29.4-107.7c-1,2.4-2,4.8-3,7.2c10.2-24,22.5-47,36.8-68.8     c-8.6,5-17.3,9.9-25.9,14.9c6.4,0,12.7,0,19.1,0c17.2,0,34.4,0,51.7,0c25.6,0,51.2,0,76.7,0c31.1,0,62.1,0,93.2,0     c34,0,68,0,102.1,0c34.5,0,69,0,103.5,0c32.2,0,64.3,0,96.5,0c27.1,0,54.1,0,81.2,0c19.5,0,39,0,58.4,0c9.3,0,18.6,0.2,27.9,0     c0.4,0,0.8,0,1.2,0c-8.6-5-17.3-9.9-25.9-14.9c14.3,21.8,26.6,44.8,36.8,68.8c-1-2.4-2-4.8-3-7.2c14.5,34.5,24.4,70.7,29.4,107.7     c-0.4-2.7-0.7-5.3-1.1-8C906.5,473.5,907.8,492.7,907.8,512c0,15.7,13.8,30.7,30,30c16.2-0.7,30-13.2,30-30     c-0.2-80.3-21.4-160.2-62-229.6c-7.1-12.2-15.5-30.1-30.2-33.5c-2.7-0.6-5.6-1-8.4-1.1c-1.3,0-2.6,0-3.9,0c-6.3,0-12.7,0-19,0     c-25.1,0-50.2,0-75.3,0c-37,0-74.1,0-111.1,0c-43.3,0-86.6,0-130,0c-44,0-88,0-132,0c-39,0-78.1,0-117.1,0c-28.5,0-56.9,0-85.4,0     c-12.2,0-24.6-0.5-36.8,0c-6.9,0.3-13,2.2-18.5,6.4c-9,6.9-15.1,19.7-20.8,29.5c-10.5,18.1-19.4,37-27.4,56.4     c-15.5,37.2-24.9,76-30.1,115.9c-10.5,80.6,2.3,162.6,34.1,237.2c7.3,17.1,15.6,33.7,25.1,49.7c2.2,3.8,4.5,7.6,6.9,11.3     c1.2,1.9,2.3,3.7,3.6,5.6c6.5,9.6,14.9,15.9,26.8,16.2c0.2,0,0.3,0,0.5,0c3.9,0.1,7.9,0,11.9,0c21.4,0,42.8,0,64.1,0     c34.7,0,69.3,0,104,0c42.3,0,84.6,0,126.9,0c44.3,0,88.7,0,133,0c40.8,0,81.5,0,122.3,0c31.5,0,62.9,0,94.4,0     c16.8,0,33.6,0,50.4,0c1.2,0,2.5,0,3.7,0c9.6-0.2,18-4.2,23.9-11.8c6.1-8,11.2-16.9,16.2-25.6c19.6-34.1,34.9-71.1,45-109.1     c10.2-38.2,15.2-78.1,15.3-117.7c0-15.7-13.8-30.7-30-30C921.5,482.7,907.9,495.2,907.8,512z"/></g></g><g><g><path d="M86.2,542c7.6,0,15.2,0,22.8,0c20.6,0,41.2,0,61.9,0c30.6,0,61.2,0,91.8,0c37.2,0,74.4,0,111.6,0     c40.9,0,81.8,0,122.7,0c41.1,0,82.3,0,123.4,0c38.5,0,77,0,115.5,0c32.4,0,64.8,0,97.2,0c23.4,0,46.8,0,70.2,0     c11,0,22.1,0.1,33.1,0c0.5,0,1,0,1.4,0c15.7,0,30.7-13.8,30-30c-0.7-16.3-13.2-30-30-30c-7.6,0-15.2,0-22.8,0     c-20.6,0-41.2,0-61.9,0c-30.6,0-61.2,0-91.8,0c-37.2,0-74.4,0-111.6,0c-40.9,0-81.8,0-122.7,0c-41.1,0-82.3,0-123.4,0     c-38.5,0-77,0-115.5,0c-32.4,0-64.8,0-97.2,0c-23.4,0-46.8,0-70.2,0c-11,0-22.1-0.1-33.1,0c-0.5,0-1,0-1.4,0     c-15.7,0-30.7,13.8-30,30C56.9,528.3,69.4,542,86.2,542L86.2,542z"/></g></g><g><g><path d="M542,937.8c0-7.6,0-15.2,0-22.8c0-20.6,0-41.2,0-61.9c0-30.6,0-61.2,0-91.8c0-37.2,0-74.4,0-111.6     c0-40.9,0-81.8,0-122.7c0-41.1,0-82.3,0-123.4c0-38.5,0-77,0-115.5c0-32.4,0-64.8,0-97.2c0-23.4,0-46.8,0-70.2     c0-11,0.1-22.1,0-33.1c0-0.5,0-1,0-1.4c0-15.7-13.8-30.7-30-30c-16.3,0.7-30,13.2-30,30c0,7.6,0,15.2,0,22.8     c0,20.6,0,41.2,0,61.9c0,30.6,0,61.2,0,91.8c0,37.2,0,74.4,0,111.6c0,40.9,0,81.8,0,122.7c0,41.1,0,82.3,0,123.4     c0,38.5,0,77,0,115.5c0,32.4,0,64.8,0,97.2c0,23.4,0,46.8,0,70.2c0,11-0.1,22.1,0,33.1c0,0.5,0,1,0,1.4c0,15.7,13.8,30.7,30,30     C528.3,967.1,542,954.6,542,937.8L542,937.8z"/></g></g></g></svg>